PathFileType	4	(X/Y/Z)	 control3min.trc
DataRate	CameraRate	NumFrames	NumMarkers	Units	OrigDataRate	OrigDataStartFrame	OrigNumFrames
200	200	12	34	m	200	251	1000
Frame#	Time	C7			LSH			RSH			RASI			LASI			HIPR			HIPL			RPSI			LPSI			COX			RTHI1			RTHI2			RTHI3			RTHI4			RSHA1			RSHA2			RSHA3			RSHA4			RHEEL			RMET5			RMET1			RTOE			LTHI1			LTHI2			LTHI3			LTHI4			LSHA1			LSHA2			LSHA3			LSHA4			LHEEL			LMET5			LMET1			LTOE			
		X1	Y1	Z1	X2	Y2	Z2	X3	Y3	Z3	X4	Y4	Z4	X5	Y5	Z5	X6	Y6	Z6	X7	Y7	Z7	X8	Y8	Z8	X9	Y9	Z9	X10	Y10	Z10	X11	Y11	Z11	X12	Y12	Z12	X13	Y13	Z13	X14	Y14	Z14	X15	Y15	Z15	X16	Y16	Z16	X17	Y17	Z17	X18	Y18	Z18	X19	Y19	Z19	X20	Y20	Z20	X21	Y21	Z21	X22	Y22	Z22	X23	Y23	Z23	X24	Y24	Z24	X25	Y25	Z25	X26	Y26	Z26	X27	Y27	Z27	X28	Y28	Z28	X29	Y29	Z29	X30	Y30	Z30	X31	Y31	Z31	X32	Y32	Z32	X33	Y33	Z33	X34	Y34	Z34	
251	1.2550	-0.227364	1.601309	-0.550230	-0.204994	1.575887	-0.778868	-0.185021	1.579525	-0.357836	-0.082601	1.077024	-0.448483	-0.100272	1.071689	-0.674949	-0.145947	1.136385	-0.393456	-0.185536	1.133599	-0.720477	-0.271064	1.102555	-0.487138	-0.282430	1.102685	-0.596030	-0.282545	1.108803	-0.540479	-0.141382	0.870647	-0.358493	-0.122915	0.814302	-0.349051	-0.061628	0.827294	-0.365994	-0.072500	0.886732	-0.378101	-0.243375	0.321604	-0.332763	-0.260653	0.284383	-0.339292	-0.202702	0.266933	-0.347481	-0.190026	0.304656	-0.343213	-0.373222	0.072182	-0.384769	-0.189599	0.023679	-0.319404	-0.150289	0.041482	-0.417024	-0.117942	0.029992	-0.416442	-0.171671	0.821141	-0.758369	-0.146075	0.765624	-0.770099	-0.085001	0.788873	-0.774431	-0.102981	0.845302	-0.763913	-0.271922	0.306786	-0.750326	-0.288270	0.271087	-0.741541	-0.229136	0.248998	-0.745840	-0.220131	0.292472	-0.755802	-0.385861	0.077648	-0.674053	-0.220618	0.024764	-0.780358	-0.166372	0.041455	-0.704513	-0.131748	0.029554	-0.711935	
252	1.2600	-0.227993	1.601564	-0.550139	-0.205427	1.576236	-0.778809	-0.185438	1.579889	-0.357700	-0.082435	1.077292	-0.448446	-0.100095	1.072098	-0.674840	-0.145539	1.136900	-0.393302	-0.185123	1.134165	-0.720526	-0.270906	1.103195	-0.487001	-0.282275	1.103257	-0.595970	-0.282433	1.109269	-0.540414	-0.141572	0.870903	-0.358560	-0.123164	0.814536	-0.349187	-0.061869	0.827472	-0.366154	-0.072680	0.886930	-0.378205	-0.243509	0.322491	-0.332528	-0.261028	0.284682	-0.340081	-0.203118	0.267188	-0.348019	-0.190481	0.304956	-0.343696	-0.373215	0.072229	-0.385651	-0.189779	0.023807	-0.319648	-0.150185	0.041487	-0.417095	-0.117808	0.029993	-0.416397	-0.171561	0.821532	-0.758278	-0.145916	0.766015	-0.769997	-0.084839	0.789309	-0.774264	-0.102878	0.845727	-0.763786	-0.271835	0.307143	-0.749981	-0.288167	0.271442	-0.741189	-0.229018	0.249397	-0.745537	-0.220045	0.292846	-0.755500	-0.385606	0.078058	-0.673683	-0.220649	0.024887	-0.780205	-0.166258	0.041423	-0.704465	-0.131657	0.029568	-0.711945	
253	1.2650	-0.228679	1.602256	-0.550052	-0.205862	1.577093	-0.778753	-0.185879	1.580758	-0.357589	-0.082191	1.078085	-0.448436	-0.099828	1.073016	-0.674726	-0.144927	1.137966	-0.393234	-0.184534	1.135264	-0.720592	-0.270652	1.104313	-0.486893	-0.282030	1.104306	-0.595959	-0.282239	1.110190	-0.540372	-0.141688	0.871618	-0.358626	-0.123343	0.815200	-0.349340	-0.062056	0.828084	-0.366354	-0.072799	0.887572	-0.378347	-0.244016	0.323157	-0.333240	-0.261397	0.285327	-0.340785	-0.203495	0.267828	-0.348448	-0.190919	0.305688	-0.344106	-0.373076	0.072688	-0.386365	-0.189930	0.023920	-0.319882	-0.150072	0.041495	-0.417158	-0.117679	0.029995	-0.416376	-0.171374	0.822388	-0.758186	-0.145679	0.766884	-0.769881	-0.084609	0.790174	-0.774008	-0.102680	0.846570	-0.763577	-0.271729	0.307834	-0.749811	-0.288043	0.272128	-0.741034	-0.228848	0.250150	-0.745361	-0.219926	0.293584	-0.755307	-0.385313	0.078844	-0.673637	-0.220633	0.024975	-0.780077	-0.166142	0.041398	-0.704435	-0.131582	0.029580	-0.711931	
254	1.2700	-0.229403	1.603395	-0.549978	-0.206305	1.578442	-0.778695	-0.186354	1.582119	-0.357503	-0.081869	1.079373	-0.448448	-0.099466	1.074413	-0.674615	-0.144163	1.139539	-0.393239	-0.183817	1.136879	-0.720653	-0.270322	1.105892	-0.486809	-0.281690	1.105815	-0.595991	-0.281959	1.111557	-0.540365	-0.141740	0.872789	-0.358718	-0.123474	0.816317	-0.349492	-0.062193	0.829126	-0.366574	-0.072855	0.888645	-0.378514	-0.244412	0.324559	-0.333743	-0.261728	0.286323	-0.341358	-0.203840	0.268865	-0.348746	-0.191334	0.306810	-0.344395	-0.372811	0.073558	-0.386917	-0.190051	0.024019	-0.320101	-0.149954	0.041502	-0.417212	-0.117562	0.029996	-0.416372	-0.171134	0.823700	-0.758096	-0.145416	0.768169	-0.769733	-0.084330	0.791421	-0.773659	-0.102408	0.847818	-0.763305	-0.271627	0.308843	-0.749814	-0.287918	0.273129	-0.741067	-0.228654	0.251241	-0.745304	-0.219802	0.294653	-0.755224	-0.384984	0.079965	-0.673907	-0.220569	0.025029	-0.779978	-0.166025	0.041380	-0.704424	-0.131527	0.029589	-0.711897	
255	1.2750	-0.230152	1.604973	-0.549922	-0.206763	1.580261	-0.778636	-0.186871	1.583952	-0.357438	-0.081462	1.081141	-0.448469	-0.099008	1.076257	-0.674505	-0.143313	1.141598	-0.393297	-0.183004	1.138996	-0.720704	-0.269906	1.107889	-0.486744	-0.281252	1.107755	-0.596069	-0.281591	1.113351	-0.540383	-0.141728	0.874407	-0.358803	-0.123569	0.817879	-0.349625	-0.062299	0.830581	-0.366797	-0.072855	0.890136	-0.378693	-0.244991	0.325807	-0.334245	-0.262024	0.287659	-0.341805	-0.204161	0.270265	-0.348921	-0.191744	0.308302	-0.344587	-0.372411	0.074835	-0.387306	-0.190143	0.024101	-0.320302	-0.149838	0.041505	-0.417259	-0.117460	0.029997	-0.416387	-0.170860	0.825448	-0.758006	-0.145161	0.769870	-0.769544	-0.084037	0.793037	-0.773252	-0.102082	0.849452	-0.762983	-0.271559	0.310159	-0.749982	-0.287819	0.274415	-0.741275	-0.228487	0.252626	-0.745377	-0.219704	0.296053	-0.755254	-0.384616	0.081396	-0.674472	-0.220456	0.025073	-0.779924	-0.165916	0.041359	-0.704428	-0.131491	0.029594	-0.711849	
256	1.2800	-0.230918	1.606983	-0.549888	-0.207246	1.582522	-0.778578	-0.187429	1.586232	-0.357393	-0.080971	1.083373	-0.448502	-0.098450	1.078529	-0.674404	-0.142399	1.144119	-0.393394	-0.182136	1.141582	-0.720741	-0.269384	1.110290	-0.486728	-0.280713	1.110099	-0.596184	-0.281128	1.115546	-0.540425	-0.141669	0.876463	-0.358875	-0.123644	0.819883	-0.349732	-0.062378	0.832438	-0.367002	-0.072801	0.892022	-0.378869	-0.245426	0.327650	-0.334464	-0.262328	0.289302	-0.342124	-0.204472	0.272020	-0.348961	-0.192150	0.310149	-0.344670	-0.371881	0.076451	-0.387462	-0.190204	0.024174	-0.320489	-0.149724	0.041505	-0.417296	-0.117380	0.029998	-0.416413	-0.170567	0.827618	-0.757920	-0.144933	0.772004	-0.769359	-0.083747	0.794999	-0.772797	-0.101716	0.851450	-0.762628	-0.271560	0.311752	-0.750286	-0.287778	0.275976	-0.741640	-0.228354	0.254344	-0.745587	-0.219662	0.297763	-0.755395	-0.384210	0.083106	-0.675293	-0.220303	0.025110	-0.779918	-0.165814	0.041337	-0.704451	-0.131476	0.029595	-0.711790	
257	1.2850	-0.231693	1.609404	-0.549880	-0.207762	1.585200	-0.778519	-0.188031	1.588918	-0.357367	-0.080393	1.086042	-0.448550	-0.097797	1.081202	-0.674318	-0.141413	1.147070	-0.393526	-0.181213	1.144618	-0.720767	-0.268789	1.113060	-0.486715	-0.280077	1.112831	-0.596330	-0.280575	1.118123	-0.540489	-0.141577	0.878943	-0.358926	-0.123717	0.822299	-0.349799	-0.062446	0.834674	-0.367175	-0.072704	0.894281	-0.379032	-0.245857	0.329828	-0.334592	-0.262667	0.291243	-0.342273	-0.204796	0.274121	-0.348879	-0.192580	0.312334	-0.344623	-0.371226	0.078390	-0.387442	-0.190228	0.024235	-0.320659	-0.149620	0.041502	-0.417322	-0.117324	0.029999	-0.416448	-0.170271	0.830187	-0.757848	-0.144751	0.774532	-0.769179	-0.083496	0.797322	-0.772353	-0.101329	0.853796	-0.762259	-0.271661	0.313628	-0.750720	-0.287816	0.277792	-0.742132	-0.228301	0.256331	-0.745924	-0.219708	0.299764	-0.755638	-0.383759	0.085058	-0.676326	-0.220114	0.025141	-0.779955	-0.165723	0.041316	-0.704493	-0.131482	0.029591	-0.711728	
258	1.2900	-0.232480	1.612206	-0.549892	-0.208318	1.588265	-0.778461	-0.188679	1.592004	-0.357354	-0.079728	1.089134	-0.448605	-0.097044	1.084264	-0.674250	-0.140399	1.150437	-0.393668	-0.180250	1.148059	-0.720784	-0.268104	1.116184	-0.486755	-0.279346	1.115914	-0.596492	-0.279931	1.121055	-0.540578	-0.141462	0.881815	-0.358952	-0.123809	0.825120	-0.349818	-0.062519	0.837257	-0.367302	-0.072577	0.896888	-0.379169	-0.246314	0.332122	-0.334617	-0.263074	0.293529	-0.342210	-0.205137	0.276555	-0.348661	-0.193049	0.314828	-0.344447	-0.370449	0.080634	-0.387271	-0.190217	0.024295	-0.320813	-0.149526	0.041497	-0.417331	-0.117294	0.030000	-0.416483	-0.169984	0.833146	-0.757789	-0.144630	0.777407	-0.768991	-0.083278	0.799959	-0.771895	-0.100937	0.856475	-0.761892	-0.271877	0.315756	-0.751243	-0.287950	0.279847	-0.742715	-0.228351	0.258611	-0.746357	-0.219863	0.302030	-0.755973	-0.383252	0.087222	-0.677534	-0.219891	0.025162	-0.780029	-0.165643	0.041295	-0.704554	-0.131508	0.029585	-0.711666	
259	1.2950	-0.233280	1.615357	-0.549918	-0.208921	1.591683	-0.778401	-0.189366	1.595482	-0.357357	-0.078983	1.092617	-0.448661	-0.096205	1.087681	-0.674199	-0.139336	1.154197	-0.393820	-0.179233	1.151872	-0.720803	-0.267324	1.119611	-0.486825	-0.278523	1.119313	-0.596674	-0.279202	1.124311	-0.540685	-0.141345	0.885056	-0.358943	-0.123923	0.828303	-0.349792	-0.062615	0.840163	-0.367371	-0.072439	0.899819	-0.379264	-0.246951	0.334846	-0.334463	-0.263581	0.296132	-0.341960	-0.205506	0.279283	-0.348315	-0.193576	0.317641	-0.344163	-0.369555	0.083142	-0.386954	-0.190168	0.024356	-0.320954	-0.149444	0.041492	-0.417323	-0.117291	0.030001	-0.416515	-0.169713	0.836458	-0.757747	-0.144545	0.780651	-0.768828	-0.083093	0.802907	-0.771455	-0.100548	0.859466	-0.761540	-0.272220	0.318136	-0.751852	-0.288192	0.282123	-0.743362	-0.228523	0.261106	-0.746879	-0.220140	0.304558	-0.756393	-0.382681	0.089585	-0.678888	-0.219645	0.025177	-0.780128	-0.165571	0.041274	-0.704634	-0.131553	0.029577	-0.711607	
260	1.3000	-0.234093	1.618819	-0.549955	-0.209568	1.595428	-0.778337	-0.190081	1.599299	-0.357376	-0.078167	1.096452	-0.448719	-0.095291	1.091422	-0.674173	-0.138228	1.158306	-0.393988	-0.178168	1.155997	-0.720832	-0.266462	1.123336	-0.486911	-0.277622	1.123011	-0.596859	-0.278395	1.127866	-0.540813	-0.141244	0.888636	-0.358899	-0.124085	0.831811	-0.349714	-0.062744	0.843354	-0.367369	-0.072300	0.903042	-0.379312	-0.247609	0.337668	-0.334117	-0.264183	0.298991	-0.341566	-0.205910	0.282294	-0.347834	-0.194171	0.320756	-0.343764	-0.368566	0.085881	-0.386501	-0.190080	0.024429	-0.321085	-0.149371	0.041487	-0.417291	-0.117316	0.030002	-0.416539	-0.169468	0.840089	-0.757724	-0.144527	0.784204	-0.768707	-0.082957	0.806139	-0.771034	-0.100178	0.862746	-0.761217	-0.272692	0.320716	-0.752488	-0.288537	0.284604	-0.744049	-0.228783	0.263862	-0.747487	-0.220539	0.307318	-0.756880	-0.382039	0.092124	-0.680353	-0.219379	0.025187	-0.780236	-0.165504	0.041255	-0.704732	-0.131614	0.029570	-0.711552	
261	1.3050	-0.234918	1.622553	-0.550001	-0.210257	1.599468	-0.778269	-0.190820	1.603419	-0.357411	-0.077287	1.100598	-0.448766	-0.094316	1.095438	-0.674167	-0.137100	1.162734	-0.394149	-0.177027	1.160397	-0.720863	-0.265548	1.127321	-0.486991	-0.276651	1.126981	-0.597042	-0.277523	1.131701	-0.540945	-0.141174	0.892510	-0.358818	-0.124306	0.835591	-0.349583	-0.062921	0.846796	-0.367292	-0.072176	0.906528	-0.379304	-0.248397	0.340683	-0.333709	-0.264848	0.302074	-0.341079	-0.206360	0.285566	-0.347251	-0.194846	0.324130	-0.343249	-0.367496	0.088859	-0.385950	-0.189953	0.024513	-0.321210	-0.149303	0.041484	-0.417234	-0.117365	0.030007	-0.416552	-0.169257	0.844009	-0.757716	-0.144557	0.788035	-0.768603	-0.082879	0.809624	-0.770657	-0.099839	0.866291	-0.760933	-0.273284	0.323508	-0.753166	-0.288975	0.287267	-0.744745	-0.229136	0.266840	-0.748144	-0.221053	0.310298	-0.757418	-0.381311	0.094820	-0.681892	-0.219094	0.025192	-0.780335	-0.165437	0.041235	-0.704844	-0.131691	0.029563	-0.711502	
262	1.3100	-0.235761	1.626517	-0.550048	-0.210988	1.603765	-0.778194	-0.191574	1.607831	-0.357460	-0.076354	1.105006	-0.448796	-0.093286	1.099694	-0.674178	-0.135953	1.167405	-0.394324	-0.175827	1.165015	-0.720898	-0.264564	1.131567	-0.487090	-0.275618	1.131179	-0.597219	-0.276592	1.135792	-0.541080	-0.141147	0.896635	-0.358699	-0.124597	0.839623	-0.349400	-0.063154	0.850467	-0.367135	-0.072079	0.910238	-0.379234	-0.249256	0.344144	-0.333558	-0.265556	0.305337	-0.340577	-0.206847	0.289084	-0.346541	-0.195587	0.327718	-0.342629	-0.366337	0.092048	-0.385277	-0.189791	0.024615	-0.321339	-0.149237	0.041485	-0.417142	-0.117439	0.030015	-0.416550	-0.169090	0.848186	-0.757715	-0.144645	0.792127	-0.768507	-0.082860	0.813340	-0.770326	-0.099541	0.870069	-0.760690	-0.273973	0.326442	-0.753796	-0.289490	0.290092	-0.745436	-0.229568	0.269990	-0.748848	-0.221666	0.313476	-0.757990	-0.380485	0.097665	-0.683486	-0.218797	0.025198	-0.780411	-0.165367	0.041219	-0.704970	-0.131780	0.029559	-0.711458	
